<?xml version="1.0" encoding="UTF-8" standalone="no"?>
<!DOCTYPE svg PUBLIC "-//W3C//DTD SVG 1.1//EN" "http://www.w3.org/Graphics/SVG/1.1/DTD/svg11.dtd">
<svg width="100%" height="100%" viewBox="0 0 800 800" version="1.1" xmlns="http://www.w3.org/2000/svg" xmlns:xlink="http://www.w3.org/1999/xlink" xml:space="preserve" xmlns:serif="http://www.serif.com/" style="fill-rule:evenodd;clip-rule:evenodd;stroke-linejoin:round;stroke-miterlimit:2;">
    <circle cx="400" cy="400" r="400" style="fill:rgb(140,213,237);"/>
    <g opacity="0.2">
        <g transform="matrix(1,0,0,0.751792,-159.357,147.528)">
            <path d="M400,675C386.25,675 375,663.75 375,650L375,350C375,336.25 386.25,325 400,325C413.75,325 425,336.25 425,350L425,650C425,663.75 413.75,675 400,675Z" style="fill:rgb(35,31,32);fill-rule:nonzero;"/>
        </g>
        <g transform="matrix(1,0,0,0.759965,160.945,141.988)">
            <path d="M400,675C386.25,675 375,663.75 375,650L375,350C375,336.25 386.25,325 400,325C413.75,325 425,336.25 425,350L425,650C425,663.75 413.75,675 400,675Z" style="fill:rgb(35,31,32);fill-rule:nonzero;"/>
        </g>
    </g>
    <g>
        <g transform="matrix(1,0,0,0.759965,160.569,147.644)">
            <path d="M400,650C386.25,650 375,638.75 375,625L375,325C375,311.25 386.25,300 400,300C413.75,300 425,311.25 425,325L425,625C425,638.75 413.75,650 400,650Z" style="fill:rgb(255,33,92);fill-rule:nonzero;"/>
        </g>
        <g transform="matrix(1,0,0,0.751792,-159.175,149.763)">
            <path d="M400,650C386.25,650 375,638.75 375,625L375,325C375,311.25 386.25,300 400,300C413.75,300 425,311.25 425,325L425,625C425,638.75 413.75,650 400,650Z" style="fill:rgb(255,33,92);fill-rule:nonzero;"/>
        </g>
    </g>
    <g opacity="0.2">
        <g transform="matrix(1.00316,0,0,0.654223,-0.93022,-58.8779)">
            <path d="M600,675C592.5,675 583.75,671.25 578.75,663.75L400,395L221.25,663.75C213.75,675 197.5,678.75 186.25,671.25C175,663.75 171.25,647.5 178.75,636.25L378.75,336.25C383.75,328.75 391.25,325 400,325C408.75,325 416.25,328.75 421.25,336.25L621.25,636.25C628.75,647.5 626.25,663.75 613.75,671.25C610,673.75 605,675 600,675Z" style="fill:rgb(35,31,32);fill-rule:nonzero;"/>
        </g>
    </g>
    <g transform="matrix(1.00316,0,0,0.654223,-0.93022,-58.8779)">
        <path d="M600,650C592.5,650 583.75,646.25 578.75,638.75L400,370L221.25,638.75C213.75,650 197.5,653.75 186.25,646.25C175,638.75 171.25,622.5 178.75,611.25L378.75,311.25C383.75,303.75 391.25,300 400,300C408.75,300 416.25,303.75 421.25,311.25L621.25,611.25C628.75,622.5 626.25,638.75 613.75,646.25C610,648.75 605,650 600,650Z" style="fill:rgb(255,33,92);fill-rule:nonzero;"/>
    </g>
</svg>
