<?xml version="1.0" encoding="UTF-8" standalone="no"?>
<!DOCTYPE svg PUBLIC "-//W3C//DTD SVG 1.1//EN" "http://www.w3.org/Graphics/SVG/1.1/DTD/svg11.dtd">
<svg width="100%" height="100%" viewBox="0 0 600 300" version="1.1" xmlns="http://www.w3.org/2000/svg" xmlns:xlink="http://www.w3.org/1999/xlink" xml:space="preserve" xmlns:serif="http://www.serif.com/" style="fill-rule:evenodd;clip-rule:evenodd;stroke-linejoin:round;stroke-miterlimit:2;">
    <g transform="matrix(0.188411,-0.000380217,0.000388711,0.19262,18.6707,17.9468)">
        <path d="M1134,1184.98C1145.15,1185.12 1156.3,1185.26 1167.69,1186.17C1167.92,1211.52 1167.88,1236.11 1167.92,1260.7C1167.96,1281.47 1168.09,1302.24 1168.17,1323C1168.15,1323.88 1168.13,1324.77 1168.41,1326.31C1169.38,1334.76 1172.23,1341.58 1179.17,1345.57C1185.28,1349.08 1192.37,1349.16 1199.01,1347.53C1205.63,1345.9 1211.32,1341.81 1213.03,1334.9C1214.77,1327.88 1215.91,1320.53 1215.96,1313.31C1216.24,1270.65 1216.12,1227.98 1216.14,1185.31C1226.79,1185.27 1237.43,1185.23 1248.87,1185.31C1250.04,1186.8 1250.75,1188.17 1250.74,1189.54C1250.54,1234.99 1250.28,1280.45 1250.01,1325.9C1249.93,1339.08 1246.57,1351.21 1238.1,1361.86C1237.37,1362.53 1236.9,1363.1 1236.17,1363.84C1229.03,1367.37 1222.32,1371.19 1215.19,1373.92C1210.43,1375.75 1205.09,1376.03 1200,1377C1194.98,1377 1189.96,1377 1184.27,1376.64C1180.3,1375.87 1176.99,1375.54 1173.71,1375.04C1159.78,1372.91 1147.54,1367.98 1140.4,1354.7C1139.36,1352.76 1138.23,1350.87 1137.14,1348.95C1137.14,1348.52 1137.13,1348.08 1137.1,1346.93C1136.07,1342.48 1134.47,1338.79 1134.18,1334.99C1133.52,1326.04 1133.26,1317.04 1133.23,1308.05C1133.12,1279.74 1133.27,1251.42 1133.14,1223.11C1133.1,1212.19 1132.48,1201.29 1132.33,1190.37C1132.31,1188.58 1133.42,1186.78 1134,1184.98Z" style="fill-rule:nonzero;"/>
    </g>
    <g transform="matrix(0.188411,-0.000380217,0.000388711,0.19262,18.6707,17.9468)">
        <path d="M1881.96,1253C1882.06,1251.59 1882.16,1250.19 1882.12,1247.94C1883.37,1237.49 1883.94,1227.67 1886.34,1218.31C1890.35,1202.63 1898.26,1189.67 1915.19,1184.67C1919.02,1183.54 1922.64,1180.55 1926.39,1180.51C1935.91,1180.41 1945.58,1180.74 1954.94,1182.34C1962.97,1183.7 1971.58,1185.35 1977.28,1192.18C1982.41,1198.33 1988.55,1203.95 1989.82,1212.59C1991.3,1222.6 1993,1232.57 1994.68,1243.09C1982.01,1243.09 1970.89,1243.09 1959.77,1242.8C1959.55,1242 1959.34,1241.48 1959.14,1240.52C1958.19,1233.85 1957.92,1227.41 1956.07,1221.46C1952.9,1211.3 1948.38,1207.33 1936.96,1209.56C1926.48,1211.61 1918.28,1222.44 1918.07,1235.12C1917.63,1260.76 1917.38,1286.41 1917.48,1312.05C1917.51,1318.59 1918.54,1325.28 1920.15,1331.63C1922.41,1340.59 1930.53,1348.13 1941.15,1348.2C1947.13,1348.24 1953.14,1343.89 1955.24,1338.18C1958.58,1329.04 1959.6,1319.66 1959.1,1309.99C1959.02,1308.42 1960.33,1306.79 1961,1305.18C1971.37,1305.29 1981.73,1305.4 1992.92,1305.6C1994.16,1307.56 1995.16,1309.5 1994.92,1311.28C1993.6,1320.82 1992.3,1330.39 1990.36,1339.83C1988.19,1350.43 1983.46,1359.77 1974.74,1366.71C1967.76,1372.26 1959.6,1374.69 1950.64,1376.06C1949.18,1376.34 1948.09,1376.67 1947,1377C1941.98,1377 1936.96,1377 1931.33,1376.6C1926.72,1375.66 1922.54,1375.68 1918.76,1374.46C1909.85,1371.6 1901.33,1367.82 1895.51,1359.43C1894.3,1357.73 1893.22,1356.34 1892.05,1354.6C1884.21,1343.49 1883.69,1330.67 1882.13,1318.26C1881.34,1311.92 1881.85,1305.42 1881.77,1299C1881.81,1287.31 1881.86,1275.62 1881.91,1263.02C1881.93,1259.07 1881.95,1256.04 1881.96,1253Z" style="fill-rule:nonzero;"/>
    </g>
    <g transform="matrix(0.188411,-0.000380217,0.000388711,0.19262,18.6707,17.9468)">
        <path d="M1.971,745.037C1.813,744.924 1.655,744.81 1.249,744.848C1,729.312 1,713.625 1,697.469C1.166,697.104 1.332,697.207 1.84,697.599C2.112,713.604 2.041,729.321 1.971,745.037Z" style="fill-rule:nonzero;"/>
    </g>
    <g transform="matrix(0.188411,-0.000380217,0.000388711,0.19262,18.6707,17.9468)">
        <path d="M928.158,1086.96C928.244,1085.47 928.404,1083.98 928.405,1082.49C928.415,825.298 928.414,568.107 928.412,310.916C928.412,310.25 928.383,309.584 928.367,308.016C928.366,304.315 928.366,301.517 928.366,298.31C938.599,296.836 948.473,295.358 958.363,293.999C984.137,290.459 1009.92,287.083 1035.95,285.924C1053.7,285.133 1071.42,284.006 1089.15,282.979C1092.44,282.789 1095.72,282.357 1099,282.036C1103.36,282.032 1107.72,282.028 1112.99,282.009C1116.93,281.926 1119.97,281.858 1123,281.789C1130.36,281.837 1137.71,281.885 1145.99,281.937C1150.61,281.92 1154.3,281.9 1158,281.879C1163.05,282.244 1168.1,282.608 1174.03,282.974C1185.92,283.345 1196.95,283.335 1207.91,284.221C1215.07,284.799 1222.13,286.629 1229.22,287.982C1244.96,290.983 1260.76,293.695 1276.38,297.195C1286.06,299.364 1295.66,302.263 1304.95,305.747C1314.75,309.423 1324.13,314.225 1333.73,318.438C1335.6,319.258 1337.9,319.245 1339.59,320.288C1345.12,323.71 1350.46,327.442 1356.04,331.344C1358.11,332.824 1360.01,334.016 1362.12,335.465C1367.19,339.921 1372.65,343.25 1377.46,347.675C1389.8,359.027 1400.7,371.571 1410.18,385.227C1415.23,392.494 1418.73,400.928 1422.31,409.103C1429.04,424.424 1434.92,440.072 1437.01,456.831C1438.46,468.515 1440.48,480.203 1440.84,491.933C1441.3,506.797 1440.85,521.739 1439.87,536.587C1438.71,554.192 1434.29,571.179 1427.61,587.539C1424.84,594.321 1422.57,601.361 1419.19,607.825C1415.37,615.132 1410.84,622.122 1406.11,628.887C1400.9,636.327 1395.44,643.655 1389.46,650.475C1383.41,657.37 1376.64,663.637 1370.08,670.068C1367.35,672.741 1364.53,675.387 1361.42,677.584C1356.48,681.08 1351.05,683.911 1346.2,687.518C1335.44,695.518 1323.17,700.706 1311.38,706.791C1308.78,708.131 1306.45,709.978 1303.99,711.591C1306.42,713.067 1308.76,714.743 1311.3,715.988C1328.8,724.548 1344.56,735.202 1357.15,750.478C1372.13,768.648 1383.66,788.652 1392.1,810.547C1395.64,819.715 1399.94,828.648 1402.68,838.044C1406.18,850.081 1408.34,862.504 1411.27,874.715C1419.42,908.686 1427.65,942.641 1435.91,976.587C1439.7,992.183 1443.52,1007.78 1447.58,1023.31C1450.19,1033.33 1453.26,1043.23 1456.13,1053.18C1456.1,1053.38 1456.08,1053.58 1456.25,1054.43C1460.61,1067.33 1464.78,1079.58 1469,1091.98C1468.11,1092.05 1467.3,1092.18 1466.49,1092.18C1415.83,1092.19 1365.17,1092.13 1314.51,1092.33C1310.38,1092.34 1309.27,1089.73 1308.29,1087.26C1305,1079.02 1301.8,1070.7 1299.23,1062.21C1294.63,1046.95 1290.29,1031.6 1286.24,1016.18C1281.97,999.969 1278.11,983.655 1274.19,967.362C1271.7,957.063 1269.28,946.747 1267.1,936.381C1264.9,925.949 1263.1,915.434 1261.02,904.978C1259.03,895.017 1257.41,884.942 1254.69,875.179C1251.77,864.668 1247.13,854.624 1244.34,844.083C1239.8,826.876 1230.43,812.296 1219.96,798.534C1212.62,788.902 1202.27,782.207 1191.24,776.938C1174.35,768.872 1156.27,766.408 1137.85,766.087C1120.69,765.789 1103.53,766.024 1086.36,766.045C1085.08,766.047 1083.81,766.214 1082.01,766.342L1082.01,1091.99L929.023,1091.99C928.714,1090.19 928.436,1088.58 928.158,1086.96M1286.32,506.221C1285.9,502.754 1285.59,499.268 1285.04,495.821C1277.97,451.322 1253.2,421.856 1210.17,408.055C1182.89,399.305 1154.78,399.012 1126.6,400.653C1113.52,401.415 1100.51,403.492 1087.45,404.829C1083.05,405.279 1082.01,407.421 1082.02,411.697C1082.15,489.494 1082.12,567.291 1082.12,645.089L1082.12,651.005C1084.37,651.005 1086.16,651.005 1087.94,651.005C1106.27,651.003 1124.6,651.37 1142.91,650.872C1155.69,650.524 1168.57,649.865 1181.16,647.807C1208.16,643.389 1232.58,632.809 1252.23,613.187C1281.69,583.757 1289.7,547.219 1286.32,506.221Z" style="fill-rule:nonzero;stroke:black;stroke-width:5.25px;"/>
    </g>
    <g transform="matrix(0.188411,-0.000380217,0.000388711,0.19262,18.6707,17.9468)">
        <path d="M2144.92,878C2145.36,877.227 2145.8,876.454 2146.4,875.016C2149.91,861.945 2153.12,849.497 2156.66,837.143C2160.89,822.406 2165.49,807.777 2169.75,793.052C2174.91,775.248 2179.94,757.405 2184.93,739.555C2190.67,719.051 2196.31,698.519 2201.99,678C2202.28,677.217 2202.56,676.434 2202.95,674.927C2205.46,665.33 2207.74,656.417 2210.32,647.591C2214.44,633.482 2218.89,619.466 2222.95,605.341C2225.74,595.626 2228.02,585.765 2230.71,576.019C2235.18,559.832 2239.71,543.66 2244.37,527.528C2249.51,509.731 2254.9,492.007 2260.03,474.208C2261.95,467.55 2263.44,460.769 2265.12,454.044C2265.49,453.252 2265.86,452.461 2266.27,450.986C2270.24,436.549 2274.13,422.783 2278.11,409.045C2282.16,395.084 2286.4,381.179 2290.37,367.195C2292.74,358.851 2294.74,350.402 2296.9,342C2297.29,340.587 2297.69,339.174 2298.24,337.078C2300.24,331.034 2302.37,325.75 2303.87,320.294C2306.82,309.573 2309.43,298.756 2312.11,288.236L2507.52,288.236C2512.82,307.293 2518.08,326.23 2523.37,345.157C2526.17,355.19 2529.05,365.204 2531.87,375.23C2535.54,388.217 2539.22,401.198 2542.83,414.199C2549.41,437.872 2555.93,461.561 2562.5,485.236C2569.4,510.09 2576.29,534.944 2583.24,559.784C2591.46,589.186 2599.63,618.603 2608.04,647.953C2612.04,661.924 2616.78,675.685 2620.73,689.668C2624.62,703.406 2627.94,717.304 2631.51,731.131C2631.66,731.85 2631.82,732.569 2632.08,734.021C2634.45,741.582 2636.98,748.334 2638.9,755.256C2641.51,764.689 2643.49,774.296 2646.04,783.747C2650.06,798.669 2654.33,813.527 2658.51,828.408C2664.95,851.341 2671.33,874.289 2677.86,897.196C2682.62,913.908 2687.71,930.528 2692.41,947.258C2695.8,959.337 2698.68,971.557 2701.97,983.666C2706.55,1000.5 2711.29,1017.3 2715.97,1034.11C2719.39,1046.4 2722.83,1058.69 2726.26,1070.99C2728.19,1077.88 2730.11,1084.78 2732.12,1091.99L2569.5,1091.99C2566.34,1075.29 2560.3,1059.52 2556.45,1043.12C2552.37,1025.71 2547.04,1008.6 2542.3,991.345C2539.86,982.497 2537.55,973.616 2535.12,964.768C2531.83,952.824 2528.38,940.924 2525.19,928.955C2522.96,920.593 2521.22,912.105 2518.96,903.751C2517.26,897.419 2515.1,891.209 2513.14,884.945C2513.14,884.945 2513.04,884.472 2513.13,883.835C2511.84,879.278 2508.39,880.052 2505.53,880.049C2437.79,879.992 2370.05,880.034 2302.31,879.931C2298.44,879.925 2296.74,881.132 2295.87,884.948C2293.65,894.666 2290.99,904.282 2288.5,913.939C2288.25,914.989 2288.01,916.039 2287.44,917.766C2283.06,934.133 2278.95,949.808 2274.98,965.519C2269.5,987.211 2264.32,1008.98 2258.65,1030.62C2253.69,1049.6 2248.09,1068.41 2243.13,1087.38C2242.13,1091.18 2240.7,1092.29 2236.88,1092.28C2188.07,1092.16 2139.26,1092.2 2090.45,1092.19C2088.84,1092.19 2087.22,1092.04 2085.4,1091.95C2085.32,1090.49 2084.97,1089.28 2085.26,1088.26C2088.31,1077.55 2091.49,1066.89 2094.58,1056.2C2098.94,1041.12 2103.27,1026.04 2107.61,1010.95C2113.43,990.666 2119.25,970.376 2125.06,950.085C2129.71,933.845 2134.42,917.622 2138.96,901.351C2141.12,893.615 2142.95,885.787 2144.92,878M2423.91,498.633C2420.28,481.902 2416.63,465.176 2413.03,448.438C2410.94,438.687 2408.98,428.905 2406.8,419.172C2406.53,417.958 2405.3,416.96 2404.51,415.861C2403.73,416.964 2402.9,418.038 2402.2,419.186C2401.96,419.578 2402.05,420.164 2401.95,420.651C2391.12,470.511 2381.21,520.592 2369.23,570.172C2355.25,628.001 2339.46,685.393 2324.47,742.977C2322.78,749.463 2321.17,755.97 2319.47,762.691L2489.57,762.691C2467.7,674.858 2445.87,587.162 2423.91,498.633Z" style="fill-rule:nonzero;stroke:black;stroke-width:5.25px;"/>
    </g>
    <g transform="matrix(0.188411,-0.000380217,0.000388711,0.19262,18.6707,17.9468)">
        <path d="M1.962,745.49C2.041,729.321 2.112,713.604 2.077,697.426C3.465,664.608 8.898,632.902 17.665,601.744C17.845,601.106 17.95,600.446 18.261,599.236C18.433,598.676 18.473,598.191 18.666,597.886C21.125,590.343 23.391,583.104 25.712,575.745C25.765,575.624 25.782,575.361 25.939,575.056C33.948,556.554 41.8,538.356 49.652,520.157C49.652,520.157 49.939,519.8 50.182,519.377C87.166,449.303 138.491,392.976 205.078,350.892C221.179,340.716 238.372,332.27 255.063,323.028C255.618,322.886 256.174,322.744 257.252,322.327C260.818,320.733 263.799,319.241 266.915,318.121C285.605,311.408 304.327,304.781 323.038,298.125C325.086,297.701 327.134,297.278 329.887,296.648C337.049,294.957 343.439,292.982 349.976,292.075C373.29,288.841 396.655,285.971 420.463,283.042C428.284,283.025 435.642,282.93 443,282.834C444.07,282.883 445.139,282.933 447.028,282.982C449.565,282.938 451.283,282.894 453,282.85C454.069,282.916 455.138,282.982 457.029,283.081C462.781,283.423 467.719,283.648 472.641,284.062C477.863,284.502 483.078,285.058 488.283,285.676C497.194,286.733 506.095,287.878 515,288.986C515.477,289.303 515.955,289.619 517.127,289.96C528.849,292.372 540,294.297 550.869,297.26C565.23,301.175 579.681,305.102 593.521,310.494C609.276,316.631 624.594,324.001 639.74,331.561C652.599,337.979 665.264,344.919 677.416,352.579C687.655,359.034 697.413,366.402 706.706,374.177C721.832,386.831 737.401,399.197 750.956,413.426C767.3,430.583 782.234,449.17 796.819,467.886C806.08,479.771 814.2,492.669 821.708,505.757C828.4,517.423 833.781,529.869 839.307,542.166C844.446,553.601 849.909,565.014 853.624,576.937C859.407,595.501 864.716,614.308 868.576,633.347C872.17,651.078 873.891,669.215 875.896,687.233C877.104,698.096 877.281,709.074 877.922,720C877.844,720.449 877.766,720.898 877.683,722.1C877.118,733.448 876.917,744.076 875.912,754.627C874.508,769.372 873.216,784.188 870.607,798.747C865.027,829.875 856.444,860.208 843.985,889.363C840.619,897.24 837.609,905.272 834.105,913.084C831.682,918.485 828.691,923.632 825.953,928.892C825.402,929.313 824.85,929.734 824.092,930.788C813.452,948.136 803.235,964.993 792.482,981.501C788.03,988.335 782.719,994.679 777.283,1000.79C768.339,1010.84 759.311,1020.86 749.709,1030.27C734.537,1045.15 719.286,1060.02 701.54,1071.92C685.918,1082.39 670.3,1092.9 654.288,1102.75C645.343,1108.26 635.592,1112.45 626.218,1117.26C607.679,1126.78 588.255,1134.15 568.273,1139.83C551.687,1144.54 534.77,1148.09 518,1152.16C517.206,1152.38 516.413,1152.59 514.884,1152.88C507.553,1153.93 500.989,1155.25 494.36,1155.81C478.589,1157.16 462.787,1158.15 446.998,1159.28C441.64,1159.22 436.283,1159.16 430.003,1159.09C421.946,1159.04 414.78,1159.42 407.685,1158.88C399.462,1158.25 391.298,1156.83 383.113,1155.72C373.589,1154.42 363.922,1153.74 354.581,1151.63C339.767,1148.28 325.055,1144.34 310.516,1139.94C296.488,1135.69 282.432,1131.25 268.942,1125.58C255.384,1119.88 242.257,1113.01 229.404,1105.83C216.177,1098.43 203.481,1090.08 190.61,1082.05C185.393,1078.8 180.327,1075.3 175.046,1071.6C165.055,1063.09 155.097,1055.02 145.412,1046.64C139.449,1041.48 133.491,1036.2 128.249,1030.34C115.757,1016.36 103.692,1002.01 91.454,987.802C90.884,986.933 90.314,986.064 89.368,984.737C87.296,982.082 85.6,979.884 83.904,977.685C83.681,977.295 83.458,976.905 82.874,975.971C74.411,962.925 66.31,950.421 58.209,937.917C58.186,937.744 58.163,937.57 57.91,936.862C52.827,927.202 47.974,918.078 43.12,908.954C42.811,908.148 42.502,907.342 41.974,905.916C37.897,896.513 34.037,887.729 30.178,878.945C29.357,876.431 28.536,873.916 27.45,870.828C26.807,869.464 26.43,868.674 26.052,867.884C25.988,867.346 25.923,866.809 25.599,865.669C20.621,848.688 15.904,832.31 11.186,815.932C11.164,815.492 11.142,815.053 11.031,813.981C10.658,812.556 10.373,811.761 10.088,810.967C10.078,810.522 10.068,810.077 9.942,809.317C7.202,787.982 4.578,766.963 1.962,745.49M178.002,495.504C105.406,582.826 79.382,682.383 102.084,793.599C131.956,939.936 257.565,1051.15 406.887,1064.75C471.85,1070.67 533.851,1059.47 592.464,1030.49C728.175,963.41 804.494,815.46 780.152,666.202C766.996,585.532 730.424,516.982 668.745,463.523C572.481,380.086 461.686,356.378 339.276,390.864C275.344,408.876 222.232,445.068 178.002,495.504Z" style="fill:rgb(255,2,2);fill-rule:nonzero;"/>
    </g>
    <g transform="matrix(0.188411,-0.000380217,0.000388711,0.19262,18.6707,17.9468)">
        <path d="M1651,961.842C1651.43,961.938 1651.85,962.035 1652.85,962.489C1659.02,963.638 1664.66,964.213 1670.2,965.286C1675.07,966.23 1679.77,968.394 1684.66,968.866C1701.77,970.516 1718.9,972.332 1736.05,972.855C1763.16,973.682 1789.54,969.949 1814.48,958.147C1830.31,950.652 1843.36,940.068 1853.55,926.027C1860.96,915.812 1864.86,904.144 1867.4,891.701C1870.37,877.191 1869.62,862.898 1866.75,848.784C1863.81,834.293 1856.81,821.363 1847.16,810.072C1843.03,805.23 1838.38,800.82 1833.9,795.908C1832.95,795.043 1832.05,794.483 1831.01,793.613C1822.11,786.924 1813.68,780.052 1804.55,774.303C1795.31,768.488 1785.46,763.592 1775.7,758.664C1769.1,755.334 1762.12,752.756 1755.41,749.635C1750.22,747.217 1745.24,744.317 1740.03,741.919C1732.1,738.27 1723.89,735.217 1716.12,731.273C1706.6,726.442 1697.42,720.953 1687.91,715.507C1687.02,714.909 1686.31,714.552 1685.32,714.022C1684.47,713.796 1683.89,713.742 1683.25,713.679C1683.19,713.671 1683.16,713.555 1683.13,713.203C1681.36,711.991 1679.51,711.293 1677.89,710.243C1668.03,703.874 1658,697.738 1648.47,690.915C1638.49,683.775 1628.17,676.793 1619.5,668.227C1605.83,654.726 1591.89,641.265 1581.49,624.83C1576.62,617.125 1571.13,609.685 1567.29,601.481C1561.8,589.737 1557.02,577.584 1553,565.261C1550.17,556.62 1549.01,547.423 1547.31,538.435C1546.28,532.996 1545.64,527.481 1544.83,522.001C1544.88,513.309 1544.93,504.618 1545.1,495.086C1545.89,489.089 1546.56,483.935 1547.2,478.777C1548.11,471.387 1548.34,463.835 1550.08,456.645C1552.02,448.606 1555.3,440.89 1558.02,433.042C1565.99,410.072 1577.65,389.132 1592.78,370.119C1594.92,367.426 1597.16,364.79 1599.53,362.3C1604.28,357.314 1609.01,352.299 1614.02,347.577C1618.32,343.521 1622.82,339.628 1627.54,336.068C1635.96,329.711 1644.38,323.286 1653.25,317.609C1659.35,313.714 1666.11,310.794 1672.76,307.862C1686.23,301.918 1699.36,295.126 1713.95,291.929C1726.78,289.115 1739.42,285.417 1752.27,282.743C1763.38,280.432 1774.62,278.395 1785.9,277.37C1797.21,276.344 1808.64,276.72 1820.01,276.482C1820.76,276.555 1821.51,276.629 1823.08,276.706C1824.4,276.734 1824.9,276.773 1825.4,276.777C1839.6,276.89 1853.83,276.549 1867.99,277.297C1875.18,277.677 1882.26,280.05 1889.4,281.468C1903.6,284.286 1917.8,287.068 1932,289.865C1932.41,289.985 1932.82,290.105 1933.82,290.545C1938.08,291.641 1941.94,291.941 1945.41,293.276C1961.2,299.368 1976.91,305.699 1992.56,312.152C1993.55,312.562 1994.59,314.911 1994.32,316.045C1991.71,326.819 1988.78,337.514 1986.02,348.251C1978.4,377.884 1970.85,407.532 1963.13,437.141C1962.93,437.939 1960.92,439.099 1960.28,438.831C1951.08,434.972 1942.15,430.393 1932.79,426.998C1920.36,422.495 1907.7,418.601 1894.99,414.98C1887.47,412.84 1879.7,411.477 1871.97,410.227C1863.69,408.889 1855.33,408.095 1847,407.063C1846.25,407.051 1845.49,407.039 1843.95,407.009C1841.76,406.642 1840.36,406.071 1838.93,405.974C1817.75,404.539 1796.91,405.576 1776.05,410.642C1757.85,415.06 1741.5,422.318 1728.06,435.092C1721.32,441.5 1715.37,449.118 1710.56,457.095C1704.66,466.897 1702.57,478.007 1701.66,489.665C1700.52,504.298 1702.86,517.977 1708.54,531.118C1715.7,547.651 1728.15,559.971 1742.5,570.345C1751.02,576.504 1759.89,582.222 1768.94,587.572C1778.22,593.058 1787.82,598.025 1797.44,602.9C1807.05,607.771 1816.84,612.287 1826.6,616.869C1829.09,618.041 1831.82,618.722 1834.32,619.886C1842.23,623.571 1850.09,627.378 1858.13,631.376C1858.85,631.784 1859.4,631.954 1860.18,632.38C1874.76,640.386 1889.66,647.138 1903.22,656.323C1910.9,661.529 1919.01,666.127 1926.26,671.971C1933.95,678.175 1941.74,684.272 1949.22,690.735C1971.51,710.011 1989.99,732.354 2002.93,758.983C2005.87,765.032 2009.18,770.891 2011.13,777.466C2014.74,789.605 2019.91,801.274 2021.13,814.1C2021.8,821.099 2023.13,828.036 2024.17,835.001C2024.16,835.884 2024.15,836.768 2024.44,838.349C2024.54,854.031 2024.35,869.016 2024.17,884.001C2024.12,884.447 2024.08,884.892 2024.03,886.097C2021.81,899.174 2020.04,911.591 2017.25,923.777C2015.02,933.558 2012.2,943.32 2008.46,952.612C2004.69,961.948 1999.46,970.692 1994.59,979.895C1993.66,981.314 1993.01,982.534 1992.13,983.987C1987.61,990.328 1983.46,996.54 1978.99,1002.51C1974.33,1008.74 1970.05,1015.48 1964.38,1020.66C1954.16,1030.02 1943.21,1038.62 1932.21,1047.08C1924.86,1052.73 1917.37,1058.55 1909.1,1062.58C1891.85,1070.98 1874.74,1079.89 1856.05,1085.02C1847.64,1087.33 1839.5,1090.64 1831.06,1092.77C1823.96,1094.56 1816.61,1095.37 1809.35,1096.49C1797.1,1098.38 1784.88,1100.76 1772.55,1101.84C1760.55,1102.88 1748.44,1102.61 1736.37,1102.81C1727.23,1102.96 1718.04,1103.49 1708.95,1102.86C1696.27,1101.98 1683.63,1100.36 1671.02,1098.7C1657.94,1096.98 1644.79,1095.45 1631.9,1092.71C1618.09,1089.77 1604.32,1086.19 1590.95,1081.65C1574.08,1075.92 1557.6,1069.01 1541.05,1062.38C1538.65,1061.42 1536.17,1059.57 1534.85,1057.44C1534.12,1056.26 1535.81,1053.66 1536.21,1051.67C1536.58,1049.81 1536.69,1047.89 1536.91,1046C1537.28,1045.3 1537.65,1044.59 1538.08,1043.14C1540.62,1031.6 1543.06,1020.8 1545.58,1010.01C1549.78,992.05 1554.01,974.101 1558.26,956.156C1560.46,946.847 1562.73,937.552 1565.01,928.084C1570.66,931.148 1575.7,934.238 1581.03,936.695C1590.46,941.039 1599.96,945.299 1609.64,949.018C1616.9,951.803 1624.51,953.678 1631.96,955.967C1638.31,957.918 1644.65,959.883 1651,961.842Z" style="fill-rule:nonzero;stroke:black;stroke-width:5.25px;"/>
    </g>
    <g transform="matrix(0.188411,-0.000380217,0.000388711,0.19262,18.6707,17.9468)">
        <path d="M2922.21,298.239C2920.74,288.962 2919.53,279.903 2918.02,270.893C2916.2,259.977 2914.7,248.957 2912.04,238.239C2907.05,218.21 2901.87,198.196 2895.75,178.492C2889.62,158.757 2881.03,139.968 2871.51,121.562C2862.48,104.088 2852.28,87.405 2840.45,71.758C2835.4,65.077 2829.48,58.984 2823.48,53.11C2814.69,44.506 2810.57,34.385 2814.28,22.58C2816.59,15.203 2820.29,8.32 2828.81,5.054C2842.75,-0.293 2853.66,1.384 2864.27,12.086C2892.41,40.466 2913.08,73.908 2929.87,109.867C2952.31,157.93 2966.68,208.454 2975.12,260.753C2982.33,305.503 2985.12,350.522 2981.71,395.709C2980,418.414 2976.64,441.049 2972.92,463.533C2970.16,480.17 2966.24,496.682 2961.69,512.93C2958.02,526.064 2953.27,538.991 2947.87,551.525C2940.86,567.807 2933.04,583.772 2924.99,599.577C2914.73,619.719 2901.64,638.042 2887.11,655.319C2881.88,661.543 2876.83,668.108 2870.67,673.305C2866.68,676.677 2860.83,677.855 2855.41,680.092C2852.95,680.118 2850.91,680.068 2848.02,680.005C2845.75,679.771 2844.29,679.672 2842.9,679.312C2829.79,675.914 2818.96,657.281 2824.64,643.095C2826.6,638.201 2829.52,633.573 2832.67,629.31C2835.24,625.822 2838.79,623.056 2842.18,619.837C2842.76,619.185 2843.06,618.666 2843.65,617.96C2845.26,616.153 2846.66,614.591 2847.89,612.902C2860.42,595.699 2872.24,578.019 2881.66,558.905C2886.36,549.384 2890.2,539.432 2894.18,529.573C2898.07,519.905 2902.24,510.283 2905.21,500.321C2908.84,488.172 2911.59,475.742 2914.28,463.336C2916.91,451.168 2919.5,438.949 2921.16,426.624C2923.01,412.962 2924.24,399.176 2924.89,385.404C2925.59,370.787 2925.77,356.108 2925.28,341.484C2924.82,327.296 2923.22,313.144 2922.13,298.977C2922.19,298.811 2922.26,298.644 2922.21,298.239Z" style="fill:rgb(255,3,3);fill-rule:nonzero;"/>
    </g>
    <g transform="matrix(0.188411,-0.000380217,0.000388711,0.19262,18.6707,17.9468)">
        <path d="M2840.61,481.969C2840.13,483.067 2839.64,484.164 2839.03,485.987C2832.12,502.705 2826.55,519.362 2818.24,534.515C2808.69,551.912 2796.91,568.106 2785.71,584.557C2781.27,591.072 2776.9,597.851 2768.65,600.778C2754.6,605.766 2741.18,603.043 2732.82,589.85C2731.27,587.398 2730.22,584.625 2728.94,582.001C2729.02,581.247 2729.1,580.494 2729.08,578.96C2728.91,575.676 2728.67,573.168 2728.76,570.673C2729.19,559.443 2738.45,553.03 2743.48,544.328C2748.16,536.235 2754.74,529.22 2759.23,521.039C2766.6,507.59 2773.5,493.821 2779.55,479.733C2784.24,468.799 2787.55,457.243 2791.05,445.833C2793.76,436.984 2796.16,428.006 2798.06,418.952C2799.5,412.076 2799.94,404.991 2800.83,397.999C2801.24,397.224 2801.66,396.448 2802.17,394.913C2802.18,392.841 2801.93,391.509 2802.06,390.218C2803.08,380.217 2804.95,370.234 2805.09,360.225C2805.34,342.582 2804.69,324.919 2804.09,307.275C2803.92,302.164 2802.62,297.09 2801.83,292C2801.97,291.561 2802.12,291.122 2802.29,289.914C2800.88,281.101 2799.56,273.035 2797.98,265.019C2796.18,255.821 2794.53,246.563 2792.11,237.521C2789.16,226.498 2786.01,215.465 2781.96,204.813C2776.66,190.878 2770.9,177.062 2764.38,163.66C2758.23,151.013 2750.02,139.618 2740.12,129.423C2728.41,117.36 2729.06,103.456 2735.35,92.662C2744.47,77.018 2766.22,74.762 2778.66,86.243C2793.29,99.749 2804.17,116.6 2813.61,134.249C2825.74,156.906 2835.6,180.529 2842.63,205.181C2847.61,222.646 2851.14,240.535 2855.02,258.298C2860.2,281.964 2862.45,306.056 2862.66,330.18C2862.83,350.722 2861.47,371.321 2859.83,391.819C2858.74,405.527 2856.73,419.267 2853.78,432.693C2850.12,449.281 2845.06,465.558 2840.61,481.969Z" style="fill:rgb(255,3,3);fill-rule:nonzero;"/>
    </g>
    <g transform="matrix(0.188411,-0.000380217,0.000388711,0.19262,18.6707,17.9468)">
        <path d="M2728.07,376C2727.72,377.421 2727.37,378.843 2727.01,381.054C2724.63,400.059 2721.56,418.189 2715.51,435.547C2710.59,449.65 2704.56,463.376 2698.74,477.146C2696.96,481.338 2694.53,485.347 2691.84,489.03C2688.96,492.969 2685.83,496.938 2682.04,499.93C2678.94,502.379 2674.72,503.411 2671,505.072C2667.61,504.935 2664.23,504.798 2660.06,504.729C2654.57,502.355 2648.45,501.043 2645.42,497.256C2636.54,486.132 2633.5,473.347 2642.36,458.941C2648.85,448.383 2653.91,436.755 2658.22,425.089C2663.16,411.68 2666.83,397.79 2668.1,383.379C2669.19,371.101 2671.59,358.886 2671.89,346.606C2672.21,333.826 2671.22,320.947 2669.86,308.211C2668.52,295.656 2666.93,282.988 2663.79,270.799C2659.46,253.975 2652.93,237.895 2642.71,223.478C2639.92,219.534 2637.85,214.5 2637.19,209.726C2635.26,195.68 2645.94,177.825 2664,177.839C2665.39,177.886 2666.78,177.933 2668.99,177.981C2678.59,179.254 2685.76,183.333 2690.28,191.033C2696.08,200.898 2702.02,210.752 2706.86,221.094C2719.3,247.651 2725.13,275.997 2728.17,305.001C2728.39,306.757 2728.61,308.513 2728.88,311.093C2729.25,322.339 2729.7,332.76 2729.8,343.185C2729.86,349.787 2729.38,356.395 2729.14,363.001C2728.77,365.402 2728.39,367.803 2728.02,371.014C2728.03,373.216 2728.05,374.608 2728.07,376Z" style="fill:rgb(255,3,3);fill-rule:nonzero;"/>
    </g>
    <g transform="matrix(0.188411,-0.000380217,0.000388711,0.19262,18.6707,17.9468)">
        <path d="M1442.79,1267.63C1439.85,1268.85 1436.9,1270.06 1434.8,1270.93C1439.93,1274.22 1445.52,1277.24 1450.44,1281.12C1455.8,1285.35 1457.7,1292.1 1458.49,1298.32C1459.73,1308.12 1459.97,1318.15 1459.48,1328.02C1458.9,1339.57 1454.46,1349.98 1446.61,1359.37C1445.81,1360.42 1445.32,1361.02 1444.83,1361.62C1443.87,1362.33 1442.92,1363.04 1441.5,1364.12C1439.97,1365.21 1438.92,1365.93 1437.87,1366.65C1429.7,1370.94 1420.99,1372.21 1411.81,1372.08C1393.33,1371.82 1374.84,1372.01 1356.35,1372.01L1351.33,1372.01C1351.33,1312.83 1351.34,1253.99 1351.31,1195.16C1351.31,1192.79 1350.89,1190.41 1350.98,1188.04C1351.02,1187.08 1351.89,1186.15 1352.69,1185.1C1368.11,1185.07 1383.21,1185.09 1398.32,1185.27C1404.6,1185.34 1410.87,1185.73 1417.58,1185.9C1427.71,1186.07 1436.73,1188.88 1443.71,1195.56C1449.26,1200.87 1452.83,1207.83 1453.97,1215.65C1455.94,1229.27 1456.94,1242.97 1451.28,1255.94C1449.47,1260.08 1445.52,1263.27 1442.71,1267.28C1442.88,1267.65 1442.79,1267.63 1442.79,1267.63M1396.48,1288.01L1386.23,1288.01L1386.23,1344.19C1393.62,1344.19 1400.74,1344.5 1407.82,1344.11C1416.17,1343.64 1421.87,1338.72 1422.87,1330.69C1424.01,1321.57 1424.15,1312.17 1423.38,1303.01C1422.67,1294.59 1416.78,1289.9 1408.38,1288.83C1404.76,1288.37 1401.1,1288.27 1396.48,1288.01M1386,1214.69L1386,1261.08C1393.35,1260.66 1400,1260.62 1406.56,1259.81C1414.06,1258.88 1418.93,1254.58 1419.67,1247.46C1420.44,1240.08 1420.32,1232.55 1419.93,1225.11C1419.68,1220.43 1417.14,1216.42 1412.41,1214.79C1403.79,1211.81 1394.94,1212.14 1386,1214.69Z" style="fill-rule:nonzero;"/>
    </g>
    <g transform="matrix(0.188411,-0.000380217,0.000388711,0.19262,18.6707,17.9468)">
        <path d="M2752.06,1326.65C2748.46,1336.46 2744.96,1345.99 2741.02,1355.33C2740.2,1357.27 2737.76,1358.51 2736.11,1360.12C2728.58,1367.48 2719.83,1371.9 2709.03,1371.88C2685.89,1371.84 2662.76,1371.94 2639.62,1371.96C2639.16,1371.96 2638.7,1371.74 2637.86,1371.52C2637.86,1370.24 2637.86,1368.95 2637.86,1367.67C2637.86,1308.41 2637.85,1249.15 2637.86,1189.9C2637.87,1188.43 2638.14,1186.95 2638.64,1185.23C2661.26,1185.07 2683.53,1185.13 2705.79,1185.26C2708.25,1185.28 2710.71,1185.62 2713.99,1185.89C2716.11,1186.18 2717.45,1186.26 2718.7,1186.62C2737.62,1192.14 2748.27,1205.03 2751.99,1224.08C2755.67,1242.86 2756.16,1261.88 2755.63,1280.91C2755.25,1294.95 2753.96,1308.97 2753.07,1323C2752.71,1324.1 2752.36,1325.19 2752.06,1326.65M2706.14,1340.83C2714.21,1335.92 2717.45,1327.84 2717.82,1319.3C2718.84,1296.06 2719.32,1272.77 2719.16,1249.51C2719.1,1241.69 2716.95,1233.75 2714.83,1226.12C2713,1219.54 2708.35,1214.19 2701.31,1213.58C2691.82,1212.75 2682.2,1213.37 2672.62,1213.37L2672.62,1344.74C2683.97,1344.34 2695.07,1346.13 2706.14,1340.83Z" style="fill-rule:nonzero;"/>
    </g>
    <g transform="matrix(0.188411,-0.000380217,0.000388711,0.19262,18.6707,17.9468)">
        <path d="M2344.1,1310.67C2343.5,1315.73 2342.83,1320.45 2342.05,1325.91C2341.73,1327.77 2341.52,1328.89 2341.31,1330.02C2338.61,1340.29 2334.99,1350.4 2327.77,1358.18C2323.22,1363.09 2316.9,1366.72 2310.77,1369.65C2306.72,1371.59 2301.6,1371.82 2296.95,1371.87C2274.64,1372.09 2252.33,1371.99 2230.01,1372C2229.38,1372 2228.75,1371.82 2227.7,1371.67C2227.7,1369.92 2227.7,1368.3 2227.7,1366.68C2227.7,1307.9 2227.7,1249.12 2227.72,1190.33C2227.72,1188.7 2228.07,1187.07 2228.63,1185.21C2251.43,1185.06 2273.85,1185.13 2296.28,1185.27C2298.58,1185.28 2300.88,1185.64 2304,1185.92C2309.91,1187.74 2315.28,1188.92 2320.02,1191.33C2330.75,1196.79 2336.6,1207.07 2341.14,1217.29C2344.12,1223.98 2343.29,1232.37 2344.17,1240C2344.41,1241.75 2344.64,1243.51 2344.92,1246.09C2344.82,1267.24 2344.68,1287.54 2344.53,1307.85C2344.36,1308.68 2344.2,1309.52 2344.1,1310.67M2262.08,1212.41L2262.08,1344.67C2268.05,1344.67 2273.5,1344.78 2278.95,1344.63C2282.1,1344.54 2285.29,1344.27 2288.37,1343.63C2299.83,1341.25 2306.91,1333.17 2307.82,1318.51C2309.12,1297.45 2309.63,1276.31 2309.41,1255.21C2309.31,1245.72 2307.1,1236.14 2304.91,1226.81C2303.42,1220.47 2299.24,1214.82 2292.34,1213.97C2282.43,1212.76 2272.35,1212.88 2262.08,1212.41Z" style="fill-rule:nonzero;"/>
    </g>
    <g transform="matrix(0.188411,-0.000380217,0.000388711,0.19262,18.6707,17.9468)">
        <path d="M1004.59,1185.9C1024.75,1187.6 1036.08,1200.66 1039.8,1220.59C1041.51,1229.71 1042.9,1239.43 1041.53,1248.44C1040.22,1257.06 1038.35,1266 1032.85,1273.89C1025.3,1284.74 1014.88,1289.88 1002.77,1292.52C997.522,1293.67 992.003,1293.77 986.596,1293.92C978.813,1294.14 971.019,1293.98 962.715,1293.98L962.715,1371.79L928.041,1371.79C928.041,1369.84 928.041,1367.99 928.041,1366.13C928.04,1308.33 928.045,1250.53 928.013,1192.72C928.013,1191.12 927.37,1189.49 927.522,1187.92C927.615,1186.97 928.663,1186.12 929.641,1185.11C952.262,1185.08 974.523,1185.14 996.785,1185.28C999.249,1185.29 1001.71,1185.73 1004.59,1185.9M981.424,1212.83L962.749,1212.83C962.749,1229.86 962.743,1246.3 962.761,1262.73C962.762,1263.86 962.93,1264.99 963.091,1266.99C972.009,1266.57 980.819,1266.67 989.486,1265.6C996.111,1264.78 1001.57,1260.69 1003.28,1254.08C1005,1247.43 1005.96,1240.41 1005.96,1233.55C1005.95,1219.58 999.827,1213.72 985.885,1212.98C984.722,1212.92 983.558,1212.9 981.424,1212.83Z" style="fill-rule:nonzero;"/>
    </g>
    <g transform="matrix(0.188411,-0.000380217,0.000388711,0.19262,18.6707,17.9468)">
        <path d="M2534.45,1351.6C2535.1,1358.55 2535.68,1365.09 2536.29,1371.97C2527.27,1371.97 2517.78,1372.28 2508.35,1371.67C2506.77,1371.57 2505.13,1367.65 2504.11,1365.24C2503.49,1363.77 2504,1361.83 2504,1360C2499.47,1363.96 2495.68,1368 2491.22,1371.04C2479.94,1378.72 2457.08,1377.34 2448.16,1366.56C2442.92,1360.22 2439.57,1352.98 2439.36,1344.59C2439.2,1338.43 2438.94,1332.26 2439.25,1326.12C2439.89,1313.33 2446.37,1303.62 2457.01,1297.2C2465.43,1292.11 2474.54,1288.08 2483.58,1284.11C2489.6,1281.46 2495.35,1278.64 2499.82,1273.72C2503.62,1269.54 2502.84,1264.36 2501.95,1259.66C2500.98,1254.57 2495.93,1253.56 2491.78,1253.1C2481.85,1252 2474.14,1253.27 2471.53,1261.89C2470.49,1265.31 2470.45,1269.04 2469.93,1272.83L2440.06,1272.83C2439.6,1263.79 2440.19,1255.16 2443.87,1246.98C2447.74,1238.37 2454.81,1233.41 2463.6,1231.28C2470.62,1229.57 2477.92,1229.03 2485.55,1227.9C2486.45,1227.88 2486.89,1227.93 2488.13,1227.98C2493.84,1228.33 2498.85,1228.25 2503.68,1229.12C2518.96,1231.88 2528.72,1237.79 2532.49,1251.43C2533.96,1256.75 2534,1262.48 2534.69,1268.02C2534.6,1268.46 2534.5,1268.9 2534.39,1270.11C2534.37,1285.82 2534.3,1300.76 2534.34,1315.69C2534.38,1326.47 2534.56,1337.24 2534.67,1348.02C2534.57,1349.08 2534.47,1350.14 2534.45,1351.6M2476.42,1315.97C2470.53,1322.43 2468.76,1337.83 2473.52,1344.9C2474.98,1347.07 2477.55,1349.03 2480.03,1349.88C2490.12,1353.31 2499.21,1348.68 2500.58,1338.16C2502.25,1325.29 2502.14,1312.19 2502.8,1299.19C2502.28,1298.95 2501.75,1298.72 2501.23,1298.48C2493.14,1304.16 2485.06,1309.83 2476.42,1315.97Z" style="fill:rgb(255,4,4);fill-rule:nonzero;"/>
    </g>
    <g transform="matrix(0.188411,-0.000380217,0.000388711,0.19262,18.6707,17.9468)">
        <path d="M1656.18,1370.54C1655.24,1371.34 1654.21,1371.96 1653.17,1371.96C1621.84,1372.01 1590.51,1372 1559.18,1371.98C1558.53,1371.98 1557.87,1371.81 1557.22,1371.71L1557.22,1261.49C1557.22,1240.82 1557.21,1220.16 1557.23,1199.49C1557.23,1194.82 1557.33,1190.14 1557.69,1185.23C1568.98,1185.07 1579.96,1185.16 1591.4,1185.7C1591.95,1189.44 1592.04,1192.72 1592.12,1196C1592.06,1214.77 1591.96,1233.55 1591.94,1252.32C1591.91,1279.24 1591.95,1306.16 1591.96,1333.99C1591.96,1338.02 1591.96,1341.13 1591.96,1344.7C1594.23,1344.7 1596.02,1344.69 1597.8,1344.7C1617.23,1344.79 1636.65,1344.88 1656.08,1344.98C1656.08,1353.35 1656.09,1361.71 1656.18,1370.54Z" style="fill-rule:nonzero;"/>
    </g>
    <g transform="matrix(0.188411,-0.000380217,0.000388711,0.19262,18.6707,17.9468)">
        <path d="M2122.54,1185.11C2123.67,1186.24 2124.93,1187.47 2124.94,1188.69C2125.03,1248.66 2125.02,1308.63 2125,1368.61C2125,1369.86 2124.68,1371.11 2124.54,1372.13L2090.69,1372.13C2090.59,1370.37 2090.46,1369.08 2090.46,1367.8C2090.45,1309.99 2090.45,1252.19 2090.43,1194.38C2090.43,1191.9 2090.14,1189.42 2089.94,1186.47C2094.46,1185.75 2099.02,1185.37 2103.59,1185.27C2109.75,1185.14 2115.92,1185.22 2122.54,1185.11Z" style="fill-rule:nonzero;"/>
    </g>
    <g transform="matrix(0.188411,-0.000380217,0.000388711,0.19262,18.6707,17.9468)">
        <path d="M1783.47,1367.54C1783.4,1369.15 1783.28,1370.3 1783.13,1371.73L1748.94,1371.73L1748.94,1366.19C1748.94,1307.63 1748.93,1249.08 1749,1190.53C1749,1188.76 1749.77,1186.99 1750.59,1185.11C1761.31,1185.07 1771.62,1185.14 1782.54,1185.56C1783.36,1188.62 1783.55,1191.32 1783.75,1194.02C1783.63,1195.34 1783.39,1196.65 1783.39,1197.96C1783.38,1254.33 1783.39,1310.7 1783.47,1367.54Z" style="fill-rule:nonzero;"/>
    </g>
    <g transform="matrix(0.188411,-0.000380217,0.000388711,0.19262,18.6707,17.9468)">
        <path d="M364.371,599C364.364,691.128 364.336,782.756 364.396,874.384C364.401,880.647 363.102,886.269 358.787,890.943C354.444,895.648 351.418,895.975 346.219,892.258C318.318,872.31 290.484,852.266 262.465,832.484C259.716,830.543 255.878,829.235 252.528,829.198C228.042,828.924 203.551,829.064 179.061,829.043C168.789,829.034 163.415,823.692 163.407,813.287C163.362,755.478 163.35,697.669 163.373,639.86C163.378,627.411 168.282,622.592 180.592,622.593C204.582,622.597 228.573,622.52 252.562,622.672C256.303,622.696 259.163,621.667 262.022,619.311C289.905,596.334 317.876,573.464 345.818,550.559C351.433,545.956 355.095,545.827 359.061,551.881C361.83,556.107 363.794,561.512 364.151,566.531C364.907,577.139 364.375,587.838 364.371,599Z" style="fill-rule:nonzero;stroke:black;stroke-width:5.25px;"/>
    </g>
    <g transform="matrix(0.188411,-0.000380217,0.000388711,0.19262,18.6707,17.9468)">
        <path d="M655.283,614.728C624.429,550.621 574.416,512.342 504.347,501.476C488.82,499.068 472.817,499.669 457.026,499.061C448.076,498.717 440.992,493.324 438.875,484.781C436.217,474.054 442.959,462.768 453.937,462.079C467.678,461.217 481.595,461.226 495.316,462.337C528.175,464.997 559.465,473.686 588.55,489.525C639.105,517.057 673.449,558.812 694.937,611.637C711.006,651.141 717.326,692.39 714.793,734.831C711.264,793.984 692.267,847.539 653.798,893.193C615.069,939.156 564.921,965.518 506.17,975.803C490.648,978.521 474.807,979.671 459.058,980.762C447.166,981.586 438.316,973.133 438.162,962.156C438.014,951.53 446.586,943.456 458.361,943.09C501.39,941.756 542.062,931.87 578.744,908.654C625.73,878.916 655.098,836.13 669.129,782.79C684.224,725.404 679.631,669.375 655.283,614.728Z" style="fill-rule:nonzero;stroke:black;stroke-width:5.25px;"/>
    </g>
    <g transform="matrix(0.188411,-0.000380217,0.000388711,0.19262,18.6707,17.9468)">
        <path d="M611.422,808.373C584.807,857.107 543.811,885.153 489.96,894.799C479.198,896.727 468.159,897.426 457.213,897.923C446.916,898.39 438.736,890.226 438.189,880.048C437.676,870.512 444.818,861.741 454.807,860.886C470.411,859.55 486.002,858.361 501.011,853.507C550.558,837.482 580.648,803.331 591.672,753.049C600.818,711.331 594.742,671.399 570.774,635.393C550.54,604.996 521.531,587.876 485.419,583.098C476.715,581.947 467.826,581.971 459.018,581.88C446.988,581.754 438.226,574.027 438.172,563.018C438.12,552.311 446.675,544.34 458.375,543.999C494.558,542.947 528.585,550.258 558.922,570.778C595.921,595.803 617.838,631.288 627.831,674.205C638.64,720.629 633.418,765.423 611.422,808.373Z" style="fill-rule:nonzero;stroke:black;stroke-width:5.25px;"/>
    </g>
    <g transform="matrix(0.188411,-0.000380217,0.000388711,0.19262,18.6707,17.9468)">
        <path d="M455.762,634.563C499.96,631.917 536.252,661.875 542.064,705.313C546.073,735.278 539.164,761.956 517.618,783.793C501.044,800.591 480.018,807.188 456.939,807.67C446.472,807.889 438.038,798.924 438.164,788.84C438.293,778.529 446.334,770.512 457.044,770.006C477.296,769.05 493.022,760.84 501.416,741.57C510.132,721.558 505.33,696.571 490.383,682.94C481.695,675.016 471.203,671.844 459.627,672.082C454.293,672.191 449.289,671.47 445.167,667.823C439.146,662.496 436.735,655.838 439.069,648.04C441.449,640.09 447.03,635.608 455.762,634.563Z" style="fill-rule:nonzero;stroke:black;stroke-width:5.25px;"/>
    </g>
</svg>
