<?xml version="1.0" encoding="UTF-8" standalone="no"?>
<!DOCTYPE svg PUBLIC "-//W3C//DTD SVG 1.1//EN" "http://www.w3.org/Graphics/SVG/1.1/DTD/svg11.dtd">
<svg width="100%" height="100%" viewBox="0 0 800 800" version="1.1" xmlns="http://www.w3.org/2000/svg" xmlns:xlink="http://www.w3.org/1999/xlink" xml:space="preserve" xmlns:serif="http://www.serif.com/" style="fill-rule:evenodd;clip-rule:evenodd;stroke-linejoin:round;stroke-miterlimit:2;">
    <circle cx="400" cy="400" r="400" style="fill:rgb(141,213,237);"/>
    <g opacity="0.2">
        <path d="M451.25,612.5C447.5,612.5 443.75,612.5 441.25,611.25L320,581.25C296.25,575 282.5,551.25 287.5,528.75L305,456.25C310,436.25 327.5,422.5 347.5,422.5C351.25,422.5 355,422.5 357.5,423.75L478.75,453.75C502.5,460 516.25,483.75 511.25,506.25L493.75,578.75C488.75,598.75 471.25,612.5 451.25,612.5ZM347.5,460C345,460 342.5,461.25 341.25,465L323.75,537.5C322.5,541.25 325,543.75 328.75,545L450,575C452.5,576.25 456.25,575 457.5,570L475,497.5C476.25,493.75 473.75,491.25 470,490L348.75,460L347.5,460Z" style="fill:rgb(35,31,32);fill-rule:nonzero;"/>
    </g>
    <g>
        <path d="M451.25,587.5C447.5,587.5 443.75,587.5 441.25,586.25L320,556.25C296.25,550 282.5,526.25 287.5,503.75L305,431.25C310,411.25 327.5,397.5 347.5,397.5C351.25,397.5 355,397.5 357.5,398.75L478.75,428.75C502.5,435 516.25,458.75 511.25,481.25L493.75,553.75C488.75,573.75 471.25,587.5 451.25,587.5ZM347.5,435C345,435 342.5,436.25 341.25,440L323.75,512.5C322.5,516.25 325,518.75 328.75,520L450,550C452.5,551.25 456.25,550 457.5,545L475,472.5C476.25,468.75 473.75,466.25 470,465L348.75,435L347.5,435Z" style="fill:rgb(79,93,115);fill-rule:nonzero;"/>
    </g>
    <path d="M625,262.5C611.25,262.5 600,273.75 600,287.5L600,281.25L171.25,373.75C166.25,367.5 158.75,362.5 150,362.5C136.25,362.5 125,373.75 125,387.5L125,462.5C125,476.25 136.25,487.5 150,487.5C158.75,487.5 166.25,482.5 171.25,476.25L600,568.75L600,562.5C600,576.25 611.25,587.5 625,587.5C638.75,587.5 650,576.25 650,562.5L650,287.5C650,273.75 638.75,262.5 625,262.5Z" style="fill:rgb(35,31,32);fill-opacity:0.2;fill-rule:nonzero;"/>
    <path d="M600,543.75L137.5,443.75L137.5,356.25L600,256.25L600,543.75Z" style="fill:rgb(180,25,67);fill-rule:nonzero;"/>
    <path d="M175,437.5C175,451.25 163.75,462.5 150,462.5C136.25,462.5 125,451.25 125,437.5L125,362.5C125,348.75 136.25,337.5 150,337.5C163.75,337.5 175,348.75 175,362.5L175,437.5Z" style="fill:rgb(255,33,92);fill-rule:nonzero;"/>
    <path d="M650,537.5C650,551.25 638.75,562.5 625,562.5C611.25,562.5 600,551.25 600,537.5L600,262.5C600,248.75 611.25,237.5 625,237.5C638.75,237.5 650,248.75 650,262.5L650,537.5Z" style="fill:rgb(255,33,92);fill-rule:nonzero;"/>
</svg>
