<?xml version="1.0" encoding="UTF-8" standalone="no"?>
<!DOCTYPE svg PUBLIC "-//W3C//DTD SVG 1.1//EN" "http://www.w3.org/Graphics/SVG/1.1/DTD/svg11.dtd">
<svg width="100%" height="100%" viewBox="0 0 800 800" version="1.1" xmlns="http://www.w3.org/2000/svg" xmlns:xlink="http://www.w3.org/1999/xlink" xml:space="preserve" xmlns:serif="http://www.serif.com/" style="fill-rule:evenodd;clip-rule:evenodd;stroke-linejoin:round;stroke-miterlimit:2;">
    <g id="Layer_1">
        <g>
            <circle cx="400" cy="400" r="400" style="fill:rgb(140,213,237);"/>
        </g>
        <g opacity="0.2">
            <g>
                <g>
                    <path d="M400,518.75C441.25,518.75 475,485 475,443.75L475,218.75C475,177.5 441.25,143.75 400,143.75C358.75,143.75 325,177.5 325,218.75L325,443.75C325,485 358.75,518.75 400,518.75Z" style="fill:rgb(35,31,32);fill-rule:nonzero;"/>
                </g>
            </g>
        </g>
        <g opacity="0.2">
            <g>
                <path d="M400,602.5C310,602.5 237.5,530 237.5,440L237.5,392.5C237.5,382.5 246.25,373.75 256.25,373.75C266.25,373.75 275,382.5 275,392.5L275,440C275,508.75 331.25,565 400,565C468.75,565 525,508.75 525,440L525,392.5C525,382.5 533.75,373.75 543.75,373.75C553.75,373.75 562.5,382.5 562.5,392.5L562.5,440C562.5,530 490,602.5 400,602.5Z" style="fill:rgb(35,31,32);fill-rule:nonzero;"/>
            </g>
        </g>
        <g opacity="0.2">
            <g>
                <path d="M400,687.5C390,687.5 381.25,678.75 381.25,668.75L381.25,593.75C381.25,583.75 390,575 400,575C410,575 418.75,583.75 418.75,593.75L418.75,668.75C418.75,678.75 410,687.5 400,687.5Z" style="fill:rgb(35,31,32);fill-rule:nonzero;"/>
            </g>
        </g>
        <g opacity="0.2">
            <g>
                <path d="M462.5,700L337.5,700C327.5,700 318.75,691.25 318.75,681.25C318.75,671.25 327.5,662.5 337.5,662.5L462.5,662.5C472.5,662.5 481.25,671.25 481.25,681.25C481.25,691.25 472.5,700 462.5,700Z" style="fill:rgb(35,31,32);fill-rule:nonzero;"/>
            </g>
        </g>
        <g>
            <g>
                <path d="M400,493.75C441.25,493.75 475,460 475,418.75L475,193.75C475,152.5 441.25,118.75 400,118.75C358.75,118.75 325,152.5 325,193.75L325,418.75C325,460 358.75,493.75 400,493.75Z" style="fill:rgb(79,93,115);fill-rule:nonzero;"/>
            </g>
        </g>
        <g>
            <path d="M400,577.5C310,577.5 237.5,505 237.5,415L237.5,367.5C237.5,357.5 246.25,348.75 256.25,348.75C266.25,348.75 275,357.5 275,367.5L275,415C275,483.75 331.25,540 400,540C468.75,540 525,483.75 525,415L525,367.5C525,357.5 533.75,348.75 543.75,348.75C553.75,348.75 562.5,357.5 562.5,367.5L562.5,415C562.5,505 490,577.5 400,577.5Z" style="fill:white;fill-rule:nonzero;"/>
        </g>
        <g>
            <path d="M400,662.5C390,662.5 381.25,653.75 381.25,643.75L381.25,568.75C381.25,558.75 390,550 400,550C410,550 418.75,558.75 418.75,568.75L418.75,643.75C418.75,653.75 410,662.5 400,662.5Z" style="fill:white;fill-rule:nonzero;"/>
        </g>
        <g>
            <path d="M462.5,675L337.5,675C327.5,675 318.75,666.25 318.75,656.25C318.75,646.25 327.5,637.5 337.5,637.5L462.5,637.5C472.5,637.5 481.25,646.25 481.25,656.25C481.25,666.25 472.5,675 462.5,675Z" style="fill:white;fill-rule:nonzero;"/>
        </g>
    </g>
</svg>
