<?xml version="1.0" encoding="UTF-8" standalone="no"?>
<!DOCTYPE svg PUBLIC "-//W3C//DTD SVG 1.1//EN" "http://www.w3.org/Graphics/SVG/1.1/DTD/svg11.dtd">
<svg width="100%" height="100%" viewBox="0 0 800 800" version="1.1" xmlns="http://www.w3.org/2000/svg" xmlns:xlink="http://www.w3.org/1999/xlink" xml:space="preserve" xmlns:serif="http://www.serif.com/" style="fill-rule:evenodd;clip-rule:evenodd;stroke-linejoin:round;stroke-miterlimit:2;">
    <circle cx="400" cy="400" r="400" style="fill:rgb(140,213,237);"/>
    <g opacity="0.2">
        <path d="M391.25,333.75L202.5,552.5C193.75,561.25 193.75,575 202.5,582.5L212.5,592.5L187.5,617.5C180,625 180,636.25 187.5,643.75C191.25,647.5 196.25,648.75 201.25,648.75C206.25,648.75 211.25,647.5 215,643.75L240,618.75L247.5,626.25C256.25,635 270,635 277.5,626.25L498.75,440C472.5,433.75 448.75,421.25 430,402.5C408.75,383.75 396.25,358.75 391.25,333.75Z" style="fill:rgb(35,31,32);fill-rule:nonzero;"/>
    </g>
    <circle cx="527.5" cy="310" r="115" style="fill:rgb(35,31,32);fill-opacity:0.2;"/>
    <circle cx="527.5" cy="272.5" r="115" style="fill:rgb(255,33,92);"/>
    <g>
        <path d="M391.25,302.5L202.5,521.25C193.75,530 193.75,543.75 202.5,551.25L212.5,561.25L187.5,586.25C180,593.75 180,605 187.5,612.5C191.25,616.25 196.25,617.5 201.25,617.5C206.25,617.5 211.25,616.25 215,612.5L240,587.5L247.5,595C256.25,603.75 270,603.75 277.5,595L498.75,408.75C472.5,402.5 448.75,390 430,371.25C408.75,352.5 396.25,327.5 391.25,302.5Z" style="fill:rgb(79,93,115);fill-rule:nonzero;"/>
        <path d="M600,361.25C565,350 532.5,330 505,303.75C473.75,272.5 453.75,235 443.75,193.75C401.25,238.75 401.25,310 445,353.75C467.5,376.25 496.25,387.5 526.25,387.5C553.75,387.5 578.75,378.75 600,361.25Z" style="fill:rgb(79,93,115);fill-rule:nonzero;"/>
        <path d="M608.75,191.25C586.25,168.75 557.5,157.5 527.5,157.5C510,157.5 492.5,161.25 476.25,170C483.75,210 501.25,247.5 532.5,277.5C560,305 592.5,322.5 627.5,330C651.25,287.5 646.25,230 608.75,191.25Z" style="fill:rgb(79,93,115);fill-rule:nonzero;"/>
    </g>
</svg>
